# xmcd
#
# Track frame offsets:
# 150
# 8391
# 14874
# 37847
# 56619
# 67744
# 75923
# 89876
# 100389
# 117041
# 124863
# 139438
# 153279
# 166203
# 174282
# 187138
# 199414
# 208133
# 221036
# 238866
# 249039
# 261712
#
# Disc length: 3687 seconds
#
#
# Revision: 0
# Processed by: cddbd v1.5.2PL0 Copyright (c) Steve Scherf et al.
# Submitted via: FreeRIP 2.942 
#
DISCID=390e6516
DTITLE=Smokey Greene - Best of Smokey Greene Disk 1
DYEAR=1900
DGENRE=Bluegrass
TTITLE0=The Older the Violin
TTITLE1=Little Green Men
TTITLE2=The band played Waltzing Matilda
TTITLE3=Ira Hayes
TTITLE4=Glue in the Saddle
TTITLE5=Cowboys Dont get lucky all the time
TTITLE6=The leaves musn't fall
TTITLE7=Five Dollar Fine
TTITLE8=Twenty Dollar Jim
TTITLE9=Desert Blues
TTITLE10=Legend of the Snowball Tree
TTITLE11=The Last Farewell
TTITLE12=I wouldn't change you if I could
TTITLE13=Branded Wherever I go
TTITLE14=Elmer Jones
TTITLE15=Golden Guitar
TTITLE16=Jimmy Brown the News Boy
TTITLE17=RV Blues
TTITLE18=Just Plain Folks
TTITLE19=Taxes
TTITLE20=Wings in the Morning
TTITLE21=Old New Hampshire Home
EXTD=
EXTT0=
EXTT1=
EXTT2=
EXTT3=
EXTT4=
EXTT5=
EXTT6=
EXTT7=
EXTT8=
EXTT9=
EXTT10=
EXTT11=
EXTT12=
EXTT13=
EXTT14=
EXTT15=
EXTT16=
EXTT17=
EXTT18=
EXTT19=
EXTT20=
EXTT21=
PLAYORDER=
